<svg xmlns="http://www.w3.org/2000/svg" width="19" height="12" viewBox="0 0 19 12"><defs><style>.cls-1{fill:#f30;}.cls-2{fill:none;}</style></defs><title>error</title><g id="Слой_2" data-name="Слой 2"><g id="Слой_1-2" data-name="Слой 1"><path id="path-1" class="cls-1" d="M2.73.25H0l.4,7.63H2.34ZM.36,11.54a1.4,1.4,0,0,0,1,.35,1.36,1.36,0,0,0,1-.36,1.31,1.31,0,0,0,.36-1,1.31,1.31,0,0,0-.36-1,1.38,1.38,0,0,0-1-.34,1.43,1.43,0,0,0-1,.34,1.31,1.31,0,0,0-.35,1A1.3,1.3,0,0,0,.36,11.54Z"/><rect class="cls-2" width="19" height="12"/></g></g></svg>