<svg xmlns="http://www.w3.org/2000/svg" xmlns:xlink="http://www.w3.org/1999/xlink" preserveAspectRatio="xMidYMid" width="10" height="20" viewBox="0 0 10 20">
  <defs>
    <style>

      .cls-2 {
        fill: #516eab;
      }
    </style>
  </defs>
  <path d="M6.494,19.999 C6.494,19.999 6.494,10.876 6.494,10.876 C6.494,10.876 9.438,10.876 9.438,10.876 C9.438,10.876 9.879,7.321 9.879,7.321 C9.879,7.321 6.494,7.321 6.494,7.321 C6.494,7.321 6.494,5.051 6.494,5.051 C6.494,4.022 6.769,3.320 8.188,3.320 C8.188,3.320 9.998,3.319 9.998,3.319 C9.998,3.319 9.998,0.139 9.998,0.139 C9.685,0.096 8.610,-0.001 7.361,-0.001 C4.751,-0.001 2.965,1.656 2.965,4.699 C2.965,4.699 2.965,7.321 2.965,7.321 C2.965,7.321 0.014,7.321 0.014,7.321 C0.014,7.321 0.014,10.876 0.014,10.876 C0.014,10.876 2.965,10.876 2.965,10.876 C2.965,10.876 2.965,19.999 2.965,19.999 C2.965,19.999 6.494,19.999 6.494,19.999 Z" id="path-1" class="cls-2" fill-rule="evenodd"/>
</svg>
