<svg xmlns="http://www.w3.org/2000/svg" xmlns:xlink="http://www.w3.org/1999/xlink" preserveAspectRatio="xMidYMid" width="20" height="20" viewBox="0 0 20 20">
  <defs>
    <style>

      .cls-2 {
        fill: #ffffff;
      }
    </style>
  </defs>
  <path d="M14.493,20.000 C14.493,20.000 5.530,20.000 5.530,20.000 C2.486,20.000 0.009,17.524 0.009,14.480 C0.009,14.480 0.009,5.519 0.009,5.519 C0.009,2.475 2.486,-0.001 5.530,-0.001 C5.530,-0.001 14.493,-0.001 14.493,-0.001 C17.537,-0.001 20.014,2.475 20.013,5.519 C20.013,5.519 20.013,14.480 20.013,14.480 C20.013,17.523 17.537,20.000 14.493,20.000 ZM18.239,14.480 C18.239,14.480 18.239,5.519 18.239,5.519 C18.239,3.454 16.558,1.774 14.493,1.774 C14.493,1.774 5.530,1.774 5.530,1.774 C3.464,1.774 1.784,3.454 1.784,5.519 C1.784,5.519 1.784,14.480 1.784,14.480 C1.784,16.545 3.464,18.225 5.530,18.225 C5.530,18.225 14.493,18.225 14.493,18.225 C16.558,18.225 18.239,16.545 18.239,14.480 C18.239,14.480 18.239,14.480 18.239,14.480 ZM15.382,5.944 C15.040,5.944 14.704,5.804 14.463,5.563 C14.220,5.321 14.080,4.985 14.080,4.643 C14.080,4.300 14.220,3.964 14.463,3.722 C14.704,3.480 15.040,3.341 15.382,3.341 C15.725,3.341 16.061,3.480 16.303,3.722 C16.545,3.964 16.684,4.300 16.684,4.643 C16.684,4.985 16.545,5.321 16.303,5.563 C16.060,5.804 15.725,5.944 15.382,5.944 ZM10.011,15.153 C7.169,15.153 4.857,12.841 4.857,10.000 C4.857,7.158 7.169,4.846 10.011,4.846 C12.854,4.846 15.166,7.158 15.166,10.000 C15.166,12.841 12.854,15.153 10.011,15.153 ZM10.011,6.621 C8.148,6.621 6.632,8.136 6.632,10.000 C6.632,11.862 8.148,13.378 10.011,13.378 C11.875,13.378 13.391,11.862 13.391,10.000 C13.391,8.136 11.875,6.621 10.011,6.621 Z" id="path-1" class="cls-2" fill-rule="evenodd"/>
</svg>
