<svg xmlns="http://www.w3.org/2000/svg" xmlns:xlink="http://www.w3.org/1999/xlink" preserveAspectRatio="xMidYMid" width="21" height="18" viewBox="0 0 21 18">
  <defs>
    <style>

      .cls-2 {
        fill: #ffffff;
      }
    </style>
  </defs>
  <path d="M20.990,2.127 C20.218,2.487 19.388,2.732 18.516,2.842 C19.406,2.280 20.089,1.390 20.410,0.330 C19.578,0.850 18.656,1.228 17.675,1.432 C16.889,0.549 15.770,-0.002 14.531,-0.002 C12.152,-0.002 10.224,2.031 10.224,4.538 C10.224,4.893 10.262,5.240 10.335,5.572 C6.755,5.383 3.582,3.575 1.457,0.829 C1.087,1.499 0.874,2.279 0.874,3.111 C0.874,4.686 1.635,6.076 2.790,6.890 C2.084,6.866 1.420,6.662 0.839,6.322 C0.839,6.341 0.839,6.360 0.839,6.379 C0.839,8.579 2.324,10.414 4.294,10.831 C3.933,10.934 3.552,10.990 3.159,10.990 C2.882,10.990 2.612,10.962 2.349,10.909 C2.897,12.712 4.488,14.025 6.372,14.061 C4.899,15.279 3.041,16.005 1.023,16.005 C0.675,16.005 0.333,15.983 -0.004,15.941 C1.902,17.230 4.166,17.981 6.598,17.981 C14.521,17.981 18.854,11.063 18.854,5.064 C18.854,4.867 18.849,4.672 18.841,4.477 C19.683,3.837 20.413,3.037 20.990,2.127 Z" id="path-1" class="cls-2" fill-rule="evenodd"/>
</svg>
