<svg xmlns="http://www.w3.org/2000/svg" xmlns:xlink="http://www.w3.org/1999/xlink" preserveAspectRatio="xMidYMid" width="15" height="18" viewBox="0 0 15 18">
  <defs>
    <style>

      .cls-2 {
        fill: #ffffff;
      }
    </style>
  </defs>
  <path d="M13.035,9.523 C12.388,8.807 11.444,8.333 10.430,8.101 C10.430,8.101 10.430,8.004 10.430,8.004 C11.154,7.685 11.787,7.185 12.211,6.504 C12.636,5.824 12.859,5.048 12.859,4.176 C12.859,3.423 12.711,2.759 12.404,2.183 C12.096,1.607 11.633,1.147 11.010,0.803 C10.434,0.483 9.818,0.263 9.160,0.163 C8.502,0.063 7.535,0.004 6.258,0.004 C6.258,0.004 -0.000,0.004 -0.000,0.004 C-0.000,0.004 -0.000,18.011 -0.000,18.011 C-0.000,18.011 7.076,18.011 7.076,18.011 C8.283,18.011 9.278,17.841 10.061,17.617 C10.844,17.393 11.562,16.988 12.216,16.460 C12.770,16.020 13.210,15.449 13.537,14.777 C13.864,14.104 14.016,13.317 14.016,12.429 C14.016,11.213 13.681,10.239 13.035,9.523 ZM4.346,3.278 C4.346,3.278 4.763,3.278 4.763,3.278 C5.541,3.278 6.127,3.295 6.521,3.307 C6.914,3.319 7.255,3.394 7.543,3.522 C7.847,3.658 8.071,3.881 8.215,4.185 C8.359,4.489 8.431,4.786 8.431,5.075 C8.431,5.467 8.365,5.812 8.233,6.107 C8.100,6.404 7.859,6.636 7.508,6.804 C7.189,6.956 6.879,7.074 6.579,7.089 C6.279,7.106 5.756,7.147 5.008,7.147 C5.008,7.147 4.346,7.147 4.346,7.147 C4.346,7.147 4.346,3.278 4.346,3.278 ZM9.255,13.496 C9.072,13.836 8.782,14.094 8.384,14.270 C7.933,14.470 7.489,14.638 7.053,14.654 C6.616,14.670 5.830,14.737 4.693,14.737 C4.693,14.737 4.346,14.737 4.346,14.737 C4.346,14.737 4.346,10.124 4.346,10.124 C4.346,10.124 5.265,10.124 5.265,10.124 C6.044,10.124 6.665,10.138 7.129,10.150 C7.592,10.162 7.956,10.225 8.221,10.329 C8.657,10.489 8.984,10.727 9.202,11.039 C9.420,11.351 9.529,11.784 9.529,12.337 C9.529,12.769 9.438,13.156 9.255,13.496 Z" id="path-1" class="cls-2" fill-rule="evenodd"/>
</svg>
