<svg xmlns="http://www.w3.org/2000/svg" xmlns:xlink="http://www.w3.org/1999/xlink" preserveAspectRatio="xMidYMid" width="13" height="21" viewBox="0 0 13 21">
  <defs>
    <style>

      .cls-2 {
        fill: #ffffff;
      }
    </style>
  </defs>
  <path d="M12.660,12.717 C11.990,13.384 11.184,13.867 10.289,14.204 C9.443,14.523 8.516,14.683 7.598,14.789 C7.737,14.936 7.802,15.007 7.889,15.092 C9.135,16.307 10.386,17.516 11.628,18.735 C12.051,19.150 12.139,19.665 11.906,20.148 C11.651,20.676 11.081,21.023 10.522,20.986 C10.168,20.962 9.892,20.791 9.646,20.551 C8.706,19.633 7.749,18.732 6.827,17.796 C6.559,17.524 6.430,17.576 6.194,17.812 C5.248,18.757 4.287,19.687 3.320,20.613 C2.886,21.028 2.369,21.103 1.865,20.865 C1.330,20.614 0.990,20.084 1.016,19.551 C1.034,19.190 1.217,18.915 1.472,18.668 C2.704,17.473 3.934,16.275 5.164,15.078 C5.245,14.999 5.321,14.914 5.440,14.791 C3.763,14.621 2.250,14.220 0.955,13.238 C0.795,13.116 0.629,12.998 0.482,12.861 C-0.085,12.333 -0.142,11.728 0.307,11.104 C0.690,10.571 1.335,10.428 2.004,10.734 C2.134,10.794 2.257,10.868 2.375,10.948 C4.788,12.557 8.103,12.601 10.525,11.020 C10.765,10.841 11.022,10.696 11.319,10.621 C11.897,10.477 12.436,10.683 12.747,11.174 C13.101,11.735 13.096,12.282 12.660,12.717 ZM6.462,10.629 C3.469,10.619 1.016,8.212 1.033,5.303 C1.050,2.363 3.505,-0.007 6.527,0.001 C9.555,0.009 11.985,2.413 11.970,5.384 C11.955,8.287 9.484,10.639 6.462,10.629 ZM6.505,2.715 C5.008,2.714 3.812,3.884 3.824,5.342 C3.835,6.780 5.030,7.922 6.519,7.917 C8.004,7.912 9.186,6.754 9.181,5.310 C9.176,3.866 7.991,2.716 6.505,2.715 Z" id="path-1" class="cls-2" fill-rule="evenodd"/>
</svg>
