<svg xmlns="http://www.w3.org/2000/svg" xmlns:xlink="http://www.w3.org/1999/xlink" preserveAspectRatio="xMidYMid" width="19" height="19" viewBox="0 0 19 19">
  <defs>
    <style>

      .cls-2 {
        fill: #ffffff;
      }
    </style>
  </defs>
  <path d="M16.536,9.718 C16.536,9.718 16.536,12.147 16.536,12.147 C16.536,12.147 15.193,12.147 15.193,12.147 C15.193,12.147 15.193,9.718 15.193,9.718 C15.193,9.718 12.729,9.718 12.729,9.718 C12.729,9.718 12.729,8.393 12.729,8.393 C12.729,8.393 15.193,8.393 15.193,8.393 C15.193,8.393 15.193,5.965 15.193,5.965 C15.193,5.965 16.536,5.965 16.536,5.965 C16.536,5.965 16.536,8.393 16.536,8.393 C16.536,8.393 18.999,8.393 18.999,8.393 C18.999,8.393 18.999,9.718 18.999,9.718 C18.999,9.718 16.536,9.718 16.536,9.718 ZM9.428,0.903 C10.009,1.377 11.223,2.373 11.223,4.267 C11.223,6.111 10.161,6.983 9.101,7.805 C8.772,8.128 8.393,8.478 8.393,9.025 C8.393,9.574 8.772,9.872 9.049,10.096 C9.049,10.096 9.959,10.794 9.959,10.794 C11.072,11.716 12.081,12.563 12.081,14.282 C12.081,16.624 9.782,18.991 5.435,18.991 C1.771,18.991 0.002,17.272 0.002,15.428 C0.002,14.531 0.457,13.261 1.949,12.389 C3.515,11.442 5.638,11.317 6.775,11.243 C6.421,10.794 6.017,10.321 6.017,9.549 C6.017,9.125 6.143,8.876 6.270,8.577 C5.992,8.602 5.714,8.627 5.461,8.627 C2.782,8.627 1.266,6.659 1.266,4.716 C1.266,3.569 1.797,2.299 2.884,1.377 C4.324,0.206 6.042,0.007 7.407,0.007 C7.407,0.007 12.612,0.007 12.612,0.007 C12.612,0.007 10.995,0.903 10.995,0.903 C10.995,0.903 9.428,0.903 9.428,0.903 ZM4.399,12.339 C3.844,12.538 2.226,13.136 2.226,14.905 C2.226,16.674 3.970,17.944 6.674,17.944 C9.101,17.944 10.388,16.799 10.388,15.255 C10.388,13.983 9.555,13.311 7.634,11.965 C7.432,11.940 7.305,11.940 7.053,11.940 C6.826,11.940 5.461,11.990 4.399,12.339 ZM5.814,0.829 C5.158,0.829 4.451,1.153 4.046,1.651 C3.615,2.174 3.489,2.847 3.489,3.495 C3.489,5.164 4.476,7.930 6.648,7.930 C7.280,7.930 7.963,7.630 8.367,7.232 C8.948,6.659 8.999,5.861 8.999,5.413 C8.999,3.619 7.913,0.829 5.814,0.829 Z" id="path-1" class="cls-2" fill-rule="evenodd"/>
</svg>
