<?xml version="1.0" encoding="utf-8"?><svg width="97" height="65" viewBox="0 0 97 65" xmlns="http://www.w3.org/2000/svg" xmlns:xlink="http://www.w3.org/1999/xlink"><svg preserveAspectRatio="xMidYMid" width="16" height="13" viewBox="-1 -1 16 13" id="checkbox" x="80" y="33"><defs><style>.acls-3{fill:#e81313}</style></defs><g id="aгалочка"><path d="M12.828 1.953L5.196 9.831a.534.534 0 0 1-.77 0L1.155 6.455a.576.576 0 0 1 0-.796.533.533 0 0 1 .77 0l2.886 2.978 7.246-7.48a.535.535 0 0 1 .771 0 .576.576 0 0 1 0 .796zM4.812 9.996H4.81l.001-.001.001.001z" id="apath-1" class="acls-3" fill-rule="evenodd"/><path d="M13.8 1.165l-8.905 9.628a.607.607 0 0 1-.449.201.609.609 0 0 1-.449-.201L.18 6.667a.728.728 0 0 1 0-.972.603.603 0 0 1 .9 0l3.366 3.639L12.9.192a.604.604 0 0 1 .9 0 .73.73 0 0 1 0 .973zm-9.353 9.829h-.002.002z" id="apath-2" class="acls-3" fill-rule="evenodd"/></g></svg><svg preserveAspectRatio="xMidYMid" width="16" height="13" viewBox="-1 -1 16 13" id="dark-checkbox" x="80" y="20"><defs><style>.bcls-3{fill:#444}</style></defs><g id="bгалочка"><path d="M12.828 1.953L5.196 9.831a.534.534 0 0 1-.77 0L1.155 6.455a.576.576 0 0 1 0-.796.533.533 0 0 1 .77 0l2.886 2.978 7.246-7.48a.535.535 0 0 1 .771 0 .576.576 0 0 1 0 .796zM4.812 9.995H4.81h.002z" id="bpath-1" class="bcls-3" fill-rule="evenodd"/><path d="M13.8 1.165l-8.905 9.628a.607.607 0 0 1-.449.201.609.609 0 0 1-.449-.201L.18 6.667a.728.728 0 0 1 0-.972.603.603 0 0 1 .9 0l3.366 3.639L12.9.192a.604.604 0 0 1 .9 0 .73.73 0 0 1 0 .973zm-9.353 9.83h-.002l.001-.001.001.001z" id="bpath-2" class="bcls-3" fill-rule="evenodd"/></g></svg><svg preserveAspectRatio="xMidYMid" width="12" height="22" viewBox="-1 -1 12 22" id="fb" x="46"><defs><style>.ccls-2{fill:#516eab}</style></defs><path d="M6.494 19.999v-9.123h2.944l.441-3.555H6.494v-2.27c0-1.029.275-1.731 1.694-1.731l1.81-.001V.139a23.371 23.371 0 0 0-2.637-.14c-2.61 0-4.396 1.657-4.396 4.7v2.622H.014v3.555h2.951v9.123h3.529z" id="cpath-1" class="ccls-2" fill-rule="evenodd"/></svg><svg preserveAspectRatio="xMidYMid" width="21" height="21" viewBox="-1 -1 21 21" id="google-plus" x="58" y="22"><defs><style>.dcls-2{fill:#eb4026}</style></defs><path d="M16.536 9.718v2.429h-1.343V9.718h-2.464V8.393h2.464V5.965h1.343v2.428h2.463v1.325h-2.463zM9.428.903c.581.474 1.795 1.47 1.795 3.364 0 1.843-1.062 2.715-2.122 3.538-.329.323-.708.673-.708 1.22 0 .549.379.847.656 1.071l.91.698c1.113.921 2.122 1.769 2.122 3.488 0 2.342-2.299 4.709-6.646 4.709-3.664 0-5.433-1.719-5.433-3.563 0-.897.455-2.167 1.947-3.039 1.566-.947 3.689-1.072 4.826-1.146-.354-.449-.758-.922-.758-1.694 0-.424.126-.673.253-.972-.278.025-.556.05-.809.05-2.679 0-4.195-1.968-4.195-3.912 0-1.146.531-2.416 1.618-3.338C4.324.206 6.042.007 7.407.007h5.205l-1.617.896H9.428zM4.399 12.339c-.555.199-2.173.797-2.173 2.566 0 1.769 1.744 3.039 4.448 3.039 2.427 0 3.714-1.146 3.714-2.689 0-1.272-.833-1.944-2.754-3.29-.202-.025-.329-.025-.581-.025-.227 0-1.592.05-2.654.399zM5.814.828c-.656 0-1.363.325-1.768.823-.431.523-.557 1.196-.557 1.844 0 1.669.987 4.435 3.159 4.435.632 0 1.315-.3 1.719-.698.581-.573.632-1.371.632-1.819 0-1.794-1.086-4.585-3.185-4.585z" id="dpath-1" class="dcls-2" fill-rule="evenodd"/></svg><svg preserveAspectRatio="xMidYMid" width="22" height="22" viewBox="-1 -1 22 22" id="instagram" x="58"><defs><style>.ecls-2{fill:#c9365b}</style></defs><path d="M14.493 19.999H5.53A5.526 5.526 0 0 1 .009 14.48V5.519A5.527 5.527 0 0 1 5.53-.001h8.963a5.525 5.525 0 0 1 5.52 5.52v8.961a5.526 5.526 0 0 1-5.52 5.519zm3.746-5.519V5.519a3.75 3.75 0 0 0-3.746-3.745H5.53a3.75 3.75 0 0 0-3.746 3.745v8.961a3.75 3.75 0 0 0 3.746 3.745h8.963a3.75 3.75 0 0 0 3.746-3.745zm-2.857-8.536c-.342 0-.678-.14-.919-.381a1.31 1.31 0 0 1-.383-.921 1.307 1.307 0 0 1 1.302-1.301c.343 0 .679.139.921.381s.381.578.381.92c0 .342-.139.679-.381.921a1.318 1.318 0 0 1-.921.381zm-5.371 9.209A5.16 5.16 0 0 1 4.857 10a5.16 5.16 0 0 1 5.154-5.154A5.16 5.16 0 0 1 15.166 10a5.16 5.16 0 0 1-5.155 5.153zm0-8.533a3.383 3.383 0 0 0-3.379 3.379 3.383 3.383 0 0 0 3.379 3.379 3.383 3.383 0 0 0 3.38-3.379 3.383 3.383 0 0 0-3.38-3.379z" id="epath-1" class="ecls-2" fill-rule="evenodd"/></svg><svg preserveAspectRatio="xMidYMid" width="15" height="23" viewBox="-1 -1 15 23" id="odnoklassniki" y="20"><defs><style>.fcls-2{fill:#f58220}</style></defs><path d="M12.66 12.717c-.67.667-1.476 1.15-2.371 1.487-.846.319-1.773.479-2.691.585.139.146.204.218.291.303 1.246 1.215 2.497 2.424 3.739 3.643.423.415.511.93.278 1.413-.255.528-.825.875-1.384.838-.354-.024-.63-.195-.876-.435-.94-.918-1.897-1.819-2.819-2.755-.268-.272-.397-.22-.633.016-.946.945-1.907 1.875-2.874 2.8-.434.416-.951.491-1.455.253-.535-.251-.875-.782-.849-1.315.018-.36.201-.635.456-.882 1.232-1.195 2.462-2.393 3.692-3.59.081-.079.157-.164.276-.287-1.677-.17-3.19-.57-4.485-1.553-.16-.122-.326-.24-.473-.377-.567-.528-.624-1.133-.175-1.757.383-.533 1.028-.676 1.697-.37.13.06.253.134.371.213 2.413 1.61 5.728 1.654 8.15.073.24-.179.497-.324.794-.399.578-.144 1.117.062 1.428.553.354.561.349 1.108-.087 1.543zm-6.198-2.088c-2.993-.01-5.446-2.417-5.429-5.326.017-2.94 2.472-5.31 5.494-5.302 3.028.008 5.458 2.412 5.443 5.383-.015 2.903-2.486 5.255-5.508 5.245zm.043-7.914c-1.497-.001-2.693 1.169-2.681 2.627.011 1.438 1.206 2.58 2.695 2.575 1.485-.006 2.667-1.163 2.662-2.607-.005-1.444-1.19-2.594-2.676-2.595z" id="fpath-1" class="fcls-2" fill-rule="evenodd"/></svg><svg preserveAspectRatio="xMidYMid" width="14" height="7" viewBox="-1 -1 14 7" id="select-dropdown" x="80" y="46"><defs><style>.gcls-2{stroke:#000;stroke-width:1px;fill:none}</style></defs><path d="M1.104.5l5.052 3.694L11.208.5" id="gpath-1" class="gcls-2" fill-rule="evenodd"/></svg><svg preserveAspectRatio="xMidYMid" width="23" height="20" viewBox="-1 -1 23 20" id="twitter"><defs><style>.hcls-2{fill:#00acee}</style></defs><path d="M20.99 2.126a8.273 8.273 0 0 1-2.474.716A4.519 4.519 0 0 0 20.41.33a8.35 8.35 0 0 1-2.735 1.101C16.889.549 15.77-.002 14.531-.002c-2.379 0-4.307 2.032-4.307 4.539 0 .356.038.703.111 1.035-3.58-.189-6.753-1.997-8.878-4.743-.37.67-.583 1.45-.583 2.282 0 1.575.761 2.965 1.916 3.779a4.13 4.13 0 0 1-1.951-.568v.057c0 2.2 1.485 4.035 3.455 4.452a4.133 4.133 0 0 1-1.945.077c.548 1.804 2.139 3.117 4.023 3.153a8.36 8.36 0 0 1-6.376 1.88 11.735 11.735 0 0 0 6.602 2.04c7.923 0 12.256-6.918 12.256-12.917 0-.197-.005-.392-.013-.587a9.007 9.007 0 0 0 2.149-2.351z" id="hpath-1" class="hcls-2" fill-rule="evenodd"/></svg><svg preserveAspectRatio="xMidYMid" width="17" height="20" viewBox="-1 -1 17 20" id="vk" x="55" y="43"><defs><style>.icls-2{fill:#4d76a1}</style></defs><path d="M13.035 9.523c-.647-.716-1.591-1.191-2.605-1.422v-.097c.724-.319 1.357-.82 1.781-1.5.425-.68.648-1.456.648-2.329 0-.752-.148-1.416-.455-1.992-.308-.576-.771-1.036-1.394-1.38a5.486 5.486 0 0 0-1.85-.64C8.502.063 7.535.004 6.258.004H0v18.007h7.076c1.207 0 2.202-.17 2.985-.394.783-.224 1.501-.629 2.155-1.157a4.8 4.8 0 0 0 1.321-1.683c.327-.673.479-1.46.479-2.348 0-1.217-.335-2.19-.981-2.906zM4.346 3.278h.417c.778 0 1.364.017 1.758.029.393.012.734.087 1.022.215.304.136.528.359.672.663.144.304.216.601.216.889 0 .392-.066.738-.198 1.033-.133.296-.374.529-.725.697-.319.152-.629.27-.929.286-.3.016-.823.057-1.571.057h-.662V3.278zm4.909 10.218c-.183.34-.473.598-.871.774-.451.2-.895.368-1.331.384-.437.016-1.223.083-2.36.083h-.347v-4.613h.919c.779 0 1.4.014 1.864.026.463.012.827.075 1.092.179.436.16.763.398.981.71.218.312.327.745.327 1.297 0 .433-.091.82-.274 1.16z" id="ipath-1" class="icls-2" fill-rule="evenodd"/></svg><svg preserveAspectRatio="xMidYMid" width="12" height="22" viewBox="-1 -1 12 22" id="white-fb" y="43"><defs><style>.jcls-2{fill:#fff}</style></defs><path d="M6.494 19.999v-9.123h2.944l.441-3.555H6.494v-2.27c0-1.029.275-1.731 1.694-1.731l1.81-.001V.139a23.371 23.371 0 0 0-2.637-.14c-2.61 0-4.396 1.657-4.396 4.7v2.622H.014v3.555h2.951v9.123h3.529z" id="jpath-1" class="jcls-2" fill-rule="evenodd"/></svg><svg preserveAspectRatio="xMidYMid" width="21" height="21" viewBox="-1 -1 21 21" id="white-google-plus" x="34" y="43"><defs><style>.kcls-2{fill:#fff}</style></defs><path d="M16.536 9.718v2.429h-1.343V9.718h-2.464V8.393h2.464V5.965h1.343v2.428h2.463v1.325h-2.463zM9.428.903c.581.474 1.795 1.47 1.795 3.364 0 1.844-1.062 2.716-2.122 3.538-.329.323-.708.673-.708 1.22 0 .549.379.847.656 1.071l.91.698c1.113.922 2.122 1.769 2.122 3.488 0 2.342-2.299 4.709-6.646 4.709-3.664 0-5.433-1.719-5.433-3.563 0-.897.455-2.167 1.947-3.039 1.566-.947 3.689-1.072 4.826-1.146-.354-.449-.758-.922-.758-1.694 0-.424.126-.673.253-.972-.278.025-.556.05-.809.05-2.679 0-4.195-1.968-4.195-3.911 0-1.147.531-2.417 1.618-3.339C4.324.206 6.042.007 7.407.007h5.205l-1.617.896H9.428zM4.399 12.339c-.555.199-2.173.797-2.173 2.566 0 1.769 1.744 3.039 4.448 3.039 2.427 0 3.714-1.145 3.714-2.689 0-1.272-.833-1.944-2.754-3.29-.202-.025-.329-.025-.581-.025-.227 0-1.592.05-2.654.399zM5.814.829c-.656 0-1.363.324-1.768.822-.431.523-.557 1.196-.557 1.844 0 1.669.987 4.435 3.159 4.435.632 0 1.315-.3 1.719-.698.581-.573.632-1.371.632-1.819 0-1.794-1.086-4.584-3.185-4.584z" id="kpath-1" class="kcls-2" fill-rule="evenodd"/></svg><svg preserveAspectRatio="xMidYMid" width="22" height="22" viewBox="-1 -1 22 22" id="white-instagram" x="12" y="43"><defs><style>.lcls-2{fill:#fff}</style></defs><path d="M14.493 20H5.53a5.527 5.527 0 0 1-5.521-5.52V5.519A5.527 5.527 0 0 1 5.53-.001h8.963a5.525 5.525 0 0 1 5.52 5.52v8.961a5.527 5.527 0 0 1-5.52 5.52zm3.746-5.52V5.519a3.75 3.75 0 0 0-3.746-3.745H5.53a3.75 3.75 0 0 0-3.746 3.745v8.961a3.75 3.75 0 0 0 3.746 3.745h8.963a3.75 3.75 0 0 0 3.746-3.745zm-2.857-8.536c-.342 0-.678-.14-.919-.381a1.309 1.309 0 0 1-.383-.92 1.307 1.307 0 0 1 1.302-1.302c.343 0 .679.139.921.381s.381.578.381.921c0 .342-.139.678-.381.92a1.318 1.318 0 0 1-.921.381zm-5.371 9.209A5.16 5.16 0 0 1 4.857 10a5.16 5.16 0 0 1 5.154-5.154A5.16 5.16 0 0 1 15.166 10a5.16 5.16 0 0 1-5.155 5.153zm0-8.532A3.382 3.382 0 0 0 6.632 10a3.383 3.383 0 0 0 3.379 3.378A3.383 3.383 0 0 0 13.391 10a3.383 3.383 0 0 0-3.38-3.379z" id="lpath-1" class="lcls-2" fill-rule="evenodd"/></svg><svg preserveAspectRatio="xMidYMid" width="15" height="23" viewBox="-1 -1 15 23" id="white-odnoklassniki" x="23" y="20"><defs><style>.mcls-2{fill:#fff}</style></defs><path d="M12.66 12.717c-.67.667-1.476 1.15-2.371 1.487-.846.319-1.773.479-2.691.585.139.147.204.218.291.303 1.246 1.215 2.497 2.424 3.739 3.643.423.415.511.93.278 1.413-.255.528-.825.875-1.384.838-.354-.024-.63-.195-.876-.435-.94-.918-1.897-1.819-2.819-2.755-.268-.272-.397-.22-.633.016-.946.945-1.907 1.875-2.874 2.801-.434.415-.951.49-1.455.252-.535-.251-.875-.781-.849-1.314.018-.361.201-.636.456-.883 1.232-1.195 2.462-2.393 3.692-3.59.081-.079.157-.164.276-.287-1.677-.17-3.19-.571-4.485-1.553-.16-.122-.326-.24-.473-.377-.567-.528-.624-1.133-.175-1.757.383-.533 1.028-.676 1.697-.37.13.06.253.134.371.214 2.413 1.609 5.728 1.653 8.15.072.24-.179.497-.324.794-.399.578-.144 1.117.062 1.428.553.354.561.349 1.108-.087 1.543zm-6.198-2.088c-2.993-.01-5.446-2.417-5.429-5.326.017-2.94 2.472-5.31 5.494-5.302 3.028.008 5.458 2.412 5.443 5.383-.015 2.903-2.486 5.255-5.508 5.245zm.043-7.914c-1.497-.001-2.693 1.169-2.681 2.627.011 1.438 1.206 2.58 2.695 2.575 1.485-.005 2.667-1.163 2.662-2.607-.005-1.444-1.19-2.594-2.676-2.595z" id="mpath-1" class="mcls-2" fill-rule="evenodd"/></svg><svg preserveAspectRatio="xMidYMid" width="23" height="20" viewBox="-1 -1 23 20" id="white-twitter" x="23"><defs><style>.ncls-2{fill:#fff}</style></defs><path d="M20.99 2.127a8.3 8.3 0 0 1-2.474.715A4.515 4.515 0 0 0 20.41.33a8.375 8.375 0 0 1-2.735 1.102C16.889.549 15.77-.002 14.531-.002c-2.379 0-4.307 2.033-4.307 4.54 0 .355.038.702.111 1.034-3.58-.189-6.753-1.997-8.878-4.743-.37.67-.583 1.45-.583 2.282 0 1.575.761 2.965 1.916 3.779a4.13 4.13 0 0 1-1.951-.568v.057c0 2.2 1.485 4.035 3.455 4.452a4.133 4.133 0 0 1-1.945.078c.548 1.803 2.139 3.116 4.023 3.152a8.36 8.36 0 0 1-6.376 1.88 11.735 11.735 0 0 0 6.602 2.04c7.923 0 12.256-6.918 12.256-12.917 0-.197-.005-.392-.013-.587a9.019 9.019 0 0 0 2.149-2.35z" id="npath-1" class="ncls-2" fill-rule="evenodd"/></svg><svg preserveAspectRatio="xMidYMid" width="17" height="20" viewBox="-1 -1 17 20" id="white-vk" x="80"><defs><style>.ocls-2{fill:#fff}</style></defs><path d="M13.035 9.523c-.647-.716-1.591-1.19-2.605-1.422v-.097c.724-.319 1.357-.819 1.781-1.5.425-.68.648-1.456.648-2.328 0-.753-.148-1.417-.455-1.993-.308-.576-.771-1.036-1.394-1.38a5.486 5.486 0 0 0-1.85-.64C8.502.063 7.535.004 6.258.004H0v18.007h7.076c1.207 0 2.202-.17 2.985-.394.783-.224 1.501-.629 2.155-1.157a4.8 4.8 0 0 0 1.321-1.683c.327-.673.479-1.46.479-2.348 0-1.216-.335-2.19-.981-2.906zM4.346 3.278h.417c.778 0 1.364.017 1.758.029.393.012.734.087 1.022.215.304.136.528.359.672.663.144.304.216.601.216.89 0 .392-.066.737-.198 1.032-.133.297-.374.529-.725.697-.319.152-.629.27-.929.285-.3.017-.823.058-1.571.058h-.662V3.278zm4.909 10.218c-.183.34-.473.598-.871.774-.451.2-.895.368-1.331.384-.437.016-1.223.083-2.36.083h-.347v-4.613h.919c.779 0 1.4.014 1.864.026.463.012.827.075 1.092.179.436.16.763.398.981.71.218.312.327.745.327 1.298 0 .432-.091.819-.274 1.159z" id="opath-1" class="ocls-2" fill-rule="evenodd"/></svg></svg>